<svg xmlns="http://www.w3.org/2000/svg" xmlns:xlink="http://www.w3.org/1999/xlink" version="1.0" viewBox="0 0 90 90"><defs><linearGradient id="b"><stop offset="0" stop-color="#eee"/><stop offset="1" stop-color="#eee" stop-opacity="0"/></linearGradient><linearGradient id="a"><stop offset="0" stop-color="#fff"/><stop offset="1" stop-color="#fff" stop-opacity="0"/></linearGradient><linearGradient id="d" x1="78.352" x2="78.352" y1="55.763" y2="117.88" gradientUnits="userSpaceOnUse"><stop offset="0" stop-color="#7f7373"/><stop offset="1" stop-color="#706e6e"/></linearGradient><linearGradient id="c" x1="68.712" x2="68.712" y1="54.816" y2="93.26" gradientUnits="userSpaceOnUse"><stop offset="0" stop-color="#dedede"/><stop offset="1" stop-color="#1e1e1e"/></linearGradient><linearGradient xlink:href="#a" id="f" x1="59.574" x2="71.948" y1="27.577" y2="41.366" gradientTransform="rotate(-.7319 -98.056 -789.1846) scale(.85788)" gradientUnits="userSpaceOnUse"/><linearGradient xlink:href="#a" id="g" x1="59.574" x2="71.948" y1="27.577" y2="41.366" gradientTransform="matrix(-.79287 .14572 .13425 .86058 69.25 -11.207)" gradientUnits="userSpaceOnUse"/><linearGradient id="h" x1="51.531" x2="53.469" y1="43.219" y2="45.938" gradientUnits="userSpaceOnUse"><stop offset="0" stop-color="#dec"/><stop offset="1" stop-color="#dec" stop-opacity="0"/></linearGradient><linearGradient id="i" x1="43.719" x2="42" y1="43.344" y2="46.281" gradientUnits="userSpaceOnUse"><stop offset="0" stop-color="#dec"/><stop offset="1" stop-color="#dec" stop-opacity="0"/></linearGradient><linearGradient id="j" x1="42.868" x2="52.414" y1="36.702" y2="37.633" gradientTransform="matrix(-1.1949 -.11414 -.11929 1.1433 107.5 -6.6508)" gradientUnits="userSpaceOnUse"><stop offset="0" stop-color="#a669db"/><stop offset="1" stop-color="#a25ce0" stop-opacity="0"/></linearGradient><linearGradient id="k" x1="64.811" x2="69.406" y1="42.001" y2="46.341" gradientUnits="userSpaceOnUse"><stop offset="0" stop-color="#dec"/><stop offset="1" stop-color="#dec" stop-opacity="0"/></linearGradient><linearGradient id="l" x1="30.691" x2="26.986" y1="43.497" y2="47.909" gradientTransform="matrix(.9986 0 0 1.1062 -4.0229 -14.833)" gradientUnits="userSpaceOnUse"><stop offset="0" stop-color="#eee"/><stop offset="1" stop-color="#eee" stop-opacity="0"/></linearGradient><linearGradient xlink:href="#b" id="m" x1="30.459" x2="27.773" y1="35.895" y2="41.659" gradientTransform="translate(-9.013 -12.487) scale(1.2017)" gradientUnits="userSpaceOnUse"/><linearGradient xlink:href="#b" id="n" x1="30.459" x2="27.773" y1="35.895" y2="41.659" gradientTransform="matrix(-1.2017 0 0 1.2017 100.9 -12.487)" gradientUnits="userSpaceOnUse"/><radialGradient id="e" cx="75.615" cy="86.35" r="30.106" gradientUnits="userSpaceOnUse"><stop offset="0" stop-color="#a669db"/><stop offset=".2759" stop-color="#a473ce"/><stop offset=".3456" stop-color="#a25ce0"/><stop offset=".521" stop-color="#8530d1"/><stop offset=".709" stop-color="#410179"/><stop offset="1"/></radialGradient></defs><path fill="none" stroke="#000" stroke-opacity=".6979" stroke-width="3.6233433999999995" d="M83.1908 45.002c0 21.0913-17.098 38.1894-38.1894 38.1894S6.8119 66.0934 6.8119 45.002 23.91 6.8125 45.0014 6.8125 83.1908 23.9106 83.1908 45.002z"/><path fill="url(#d)" stroke="url(#c)" stroke-width="1.9043" d="M105.72 86.35c0 16.627-13.479 30.106-30.106 30.106S45.508 102.977 45.508 86.35s13.479-30.106 30.106-30.106S105.72 69.723 105.72 86.35z" transform="translate(-49.951 -63.431) scale(1.2557)"/><path fill="url(#e)" d="M105.72 86.35c0 16.627-13.479 30.106-30.106 30.106S45.508 102.977 45.508 86.35s13.479-30.106 30.106-30.106S105.72 69.723 105.72 86.35z" transform="translate(-37.884 -49.651) scale(1.0961)"/><path fill="#dec" d="M47.1333 44.5582c0 1.04-.8432 1.8833-1.8833 1.8833s-1.8833-.8432-1.8833-1.8833.8432-1.8834 1.8833-1.8834 1.8833.8433 1.8833 1.8834z"/><path fill="#fff" fill-opacity=".7083" fill-rule="evenodd" d="M45.525 15.023c-4.04-.165-10.343.527-14.525 3.166.314 1.3247.6854 2.4589 1.6906 4.4148 3.9556-1.7464 7.5641-2.6199 12.17-2.5027 4.606.117 8.886 1.599 12.274 2.899 1.17-2.322 1.414-3.107 1.865-4.434-4.817-2.772-9.144-3.366-13.475-3.543z"/><path fill="url(#f)" fill-rule="evenodd" d="M71.829 32.144c-.7068-2.9794-4.742-7.2263-6.5472-8.3614-.7997.662-1.073 1.1407-2.073 2.4787 2.1123 1.2954 5.5142 3.3636 6.9702 6.4692 1.2143-.4286.9022-.2075 1.65-.5864z" transform="translate(1)"/><path fill="url(#g)" fill-rule="evenodd" d="M17 35.949c.15-3.111 4.198-10.483 5.671-11.949.849.516 1.182.946 2.329 2.102-1.73 1.683-5.545 6.207-6.365 9.582-1.192-.207-.882.508-1.635.265z" transform="translate(1)"/><g fill-rule="evenodd" opacity=".5105"><path fill="#dec" fill-opacity=".776" d="M45.317 36.0039c-.9795-.0499-2.3573.3997-3.3712 1.1971.0761.4002.1286.1417.3723.7327.959-.5277 1.8339-.7916 2.9506-.7562 1.1168.0355 2.1544.483 2.9757.8759.2837-.7015.3427-.5482.4522-.9489-1.168-.8375-2.3297-1.0472-3.3796-1.1007z"/><path fill="url(#h)" d="M53 45.345c-.1292-.8775-.8987-2.1398-1.2448-2.48-.1562.1914-.2103.3309-.407.72.4052.3883 1.0577 1.0086 1.3314 1.926.2358-.1213.175-.0575.3204-.166z" transform="matrix(1.2027 0 0 .96191 -12.13 -3.2478)"/><path fill="url(#i)" d="M42 45.969c.1292-.8775 1.1861-2.7637 1.5323-3.1038.1562.1914.2103.3309.407.72-.4052.3883-1.3246 1.4764-1.5983 2.3939-.236-.121-.196.098-.341-.01z" transform="matrix(1.2027 0 0 .96191 -12.13 -3.2478)"/></g><path fill="url(#j)" d="M50.373 29.801c-3.6891-1.9313-9.5005.0866-12.054 1.2715-3.7712 1.7503 1.5529.6313 3.4182-.1735 1.606-.693 3.7683-1.0958 8.165.1488 1.6291-.016 1.1412-.7726.4704-1.2468z" opacity=".5105" transform="translate(1)"/><g fill="url(#k)" fill-rule="evenodd" opacity=".2368" transform="matrix(.57236 0 0 .5312 17.774 13.742)"><path d="M48.585 34.382c-2.0595-.1522-6.158 1.3206-7.6902 2.4907.2724 1.1791.3982 1.5991 1.2703 3.34 1.2706-.8994 4.0104-2.7218 6.1711-2.6206 2.2282.1044 4.3039.5715 5.3438 1.2046.4915-1.1496.768-1.7834 1.2908-2.7018-3.1317-1.3537-4.3263-1.5607-6.3859-1.7129zM69.406 45.097c-1.2766-1.6351-1.772-2.068-3.2618-3.032-.6725.5423-.905.9376-1.7515 2.0402 1.7437 1.1005 2.325 1.4824 3.3721 2.4445.8185-.6056 1.0149-1.1455 1.6412-1.4527zM25.728 46.538c1.0801-1.4386 1.8959-2.5258 3.5822-4.0792.6725.5423 1.8221 1.1996 2.7995 1.9092-1.7437 1.2971-2.7535 2.2842-3.4731 3.1808-1.015-.3436-2.2824-.7035-2.9086-1.0108z"/></g><path fill="url(#l)" fill-rule="evenodd" d="M43.939 24.497c-2.1351.057-5.5947.9134-7.1248 1.4566.272 1.3042.4012 1.9978.4994 2.8215 1.5692-.6194 4.6237-1.5368 6.7814-1.4248 2.2251.1154 4.8308.7217 6.1697 1.1967.269-1.1965.5489-1.894.9207-3.0601-2.977-.6712-5.1146-1.0468-7.2464-.9898z" opacity=".3842" transform="translate(1)"/><path fill="url(#m)" fill-rule="evenodd" d="M23.496 33.716c1.0786-1.5913 1.8181-2.4183 3.502-4.1367.6715.5998 2.4204 1.7776 3.3965 2.5625-1.7412 1.4347-2.5994 2.001-3.5433 2.9928-1.0136-.38-2.7298-1.0787-3.3552-1.4185z" opacity=".3842" transform="translate(1)"/><path fill="url(#n)" fill-rule="evenodd" d="M68.395 33.716c-1.0786-1.5913-1.8181-2.4183-3.502-4.1367-.6715.5998-2.4204 1.7776-3.3965 2.5625 1.7412 1.4347 2.5994 2.001 3.5433 2.9928 1.0136-.38 2.7298-1.0787 3.3552-1.4185z" opacity=".3842" transform="translate(1)"/></svg>